<svg xmlns="http://www.w3.org/2000/svg" xmlns:xlink="http://www.w3.org/1999/xlink" preserveAspectRatio="xMidYMid" width="35" height="39.688" viewBox="0 0 35 39.688">
  <defs>
    <style>
      .cls-1 {
        fill: #fff;
        fill-rule: evenodd;
      }
    </style>
  </defs>
  <path d="M31.570,28.369 L25.637,29.595 L17.781,22.433 L25.637,15.271 L31.570,16.497 L34.999,22.433 L31.570,28.369 ZM30.520,17.951 L26.123,17.043 L20.211,22.433 L26.123,27.824 L30.520,26.915 L33.108,22.433 L30.520,17.951 ZM25.749,3.044 C25.646,3.044 25.557,3.005 25.460,2.986 L21.565,7.218 C22.987,8.354 23.916,10.082 23.916,12.044 C23.916,15.470 21.137,18.247 17.710,18.247 C14.282,18.247 11.503,15.470 11.503,12.044 C11.503,10.095 12.421,8.377 13.828,7.240 L9.919,2.994 C9.835,3.008 9.758,3.044 9.669,3.044 C8.825,3.044 8.141,2.361 8.141,1.517 C8.141,0.673 8.825,-0.011 9.669,-0.011 C10.514,-0.011 11.198,0.673 11.198,1.517 C11.198,1.649 11.154,1.767 11.123,1.889 L15.237,6.359 C15.996,6.029 16.830,5.840 17.710,5.840 C18.577,5.840 19.401,6.021 20.151,6.342 L24.288,1.848 C24.263,1.738 24.221,1.634 24.221,1.517 C24.221,0.673 24.905,-0.011 25.749,-0.011 C26.594,-0.011 27.278,0.673 27.278,1.517 C27.278,2.361 26.594,3.044 25.749,3.044 ZM17.218,22.466 L9.362,29.628 L3.428,28.402 L-0.000,22.466 L3.428,16.530 L9.362,15.304 L17.218,22.466 ZM4.479,17.984 L1.890,22.466 L4.479,26.948 L8.876,27.857 L14.788,22.466 L8.876,17.076 L4.479,17.984 ZM18.852,26.034 L16.316,26.034 L17.584,24.645 L18.852,26.034 ZM21.999,29.484 L13.168,29.484 L14.956,27.525 L20.212,27.525 L21.999,29.484 ZM23.360,30.975 L23.863,31.526 L23.572,32.933 L11.596,32.933 L11.305,31.526 L11.808,30.975 L23.360,30.975 ZM22.858,36.383 L12.309,36.383 L11.904,34.424 L23.263,34.424 L22.858,36.383 ZM17.584,39.696 L14.427,37.874 L20.741,37.874 L17.584,39.696 Z" class="cls-1"/>
</svg>
